<?xml version="1.0" encoding="UTF-8"?> <svg xmlns="http://www.w3.org/2000/svg" width="141" height="80" viewBox="0 0 141 80" fill="none"><path d="M79.1226 12.6931C79.1226 12.2405 78.9169 11.9643 78.5055 11.8673C78.094 11.7703 77.6826 11.7233 77.2711 11.7233H76.2102V20.5929H77.1242C77.1742 20.5929 77.2799 20.587 77.4445 20.5753C78.0382 20.5312 78.4967 20.4283 78.8258 20.2696C79.0227 20.1668 79.1226 19.9757 79.1226 19.6907M80.0572 20.6105C79.4459 20.8721 78.6495 21.0014 77.6738 21.0014H76.2102V25.786H74.582V11.3471H77.9148C78.7376 11.3471 79.4371 11.4617 80.0131 11.688C80.3923 11.835 80.6303 12.0407 80.7302 12.3023C80.7802 12.4286 80.8037 12.6931 80.8037 13.1016V19.3674C80.8008 19.9787 80.551 20.3931 80.0572 20.6105Z" fill="black"></path><path d="M86.3562 14.3096C86.3562 14.2067 86.3474 14.1009 86.3327 13.9863C86.2357 13.5778 85.7625 13.372 84.9132 13.372C83.9345 13.372 83.4437 13.6836 83.4437 14.3096V17.7833H86.3562M86.3562 23.9462V18.3799H83.4437V23.9462H81.7656V14.7857C81.7656 14.2302 81.9302 13.8217 82.2594 13.5601C82.7031 13.2075 83.5995 13.0311 84.9514 13.0311C85.6744 13.0311 86.2445 13.0811 86.656 13.184C87.1997 13.3191 87.57 13.519 87.7669 13.7805C87.9315 13.9951 88.0137 14.3242 88.0137 14.768V23.9462H86.3562Z" fill="black"></path><path d="M94.1554 23.9462L90.7757 18.3623V23.9462H89.1211V13.1016H90.7493V17.751L94.1084 13.1016H95.3428L91.9336 17.7657L95.5896 23.9462" fill="black"></path><path d="M98.1312 13.1016H96.4766V23.9462H98.1312V13.1016Z" fill="black"></path><path d="M103.86 15.6879V14.3095C103.86 14.0362 103.777 13.8276 103.613 13.6806C103.381 13.4749 102.972 13.375 102.378 13.375C101.391 13.375 100.897 13.6865 100.897 14.3125V15.9465C100.897 16.0023 100.897 16.117 100.897 16.2874C100.88 16.4696 100.956 16.6724 101.121 16.9016C101.303 17.1632 101.582 17.413 101.961 17.6511C102.143 17.7774 102.496 17.9802 103.022 18.2653C104.027 18.809 104.65 19.2969 104.897 19.7289C105.194 20.2402 105.341 20.7663 105.341 21.313V22.2505C105.341 22.8059 105.194 23.2027 104.897 23.4437C104.453 23.8081 103.589 23.9874 102.305 23.9874C101.235 23.9874 100.468 23.8845 100.01 23.6817C99.4013 23.4201 99.0957 22.9382 99.0957 22.2358V21.1454L100.75 21.1278V22.7119C100.75 22.9852 100.841 23.1939 101.021 23.3408C101.285 23.5465 101.703 23.6464 102.279 23.6464C103.234 23.6464 103.71 23.3349 103.71 22.7089V21.3629C103.71 20.9985 103.627 20.6135 103.463 20.205C103.266 19.7289 102.596 19.1705 101.45 18.5269C100.307 17.8862 99.6512 17.3719 99.4866 16.9869C99.322 16.6019 99.2397 16.1699 99.2397 15.6938V14.7739C99.2397 14.2302 99.4043 13.8276 99.7334 13.566C100.177 13.2133 101.059 13.037 102.376 13.037C103.675 13.037 104.574 13.2192 105.068 13.5807C105.379 13.807 105.538 14.2096 105.538 14.7886V15.6908" fill="black"></path><path d="M110.252 13.6306V23.9286H108.574V13.6306H106.205V13.1016H112.721V13.6306" fill="black"></path><path d="M117.981 14.3096C117.981 14.2067 117.972 14.1009 117.958 13.9863C117.861 13.5778 117.388 13.372 116.538 13.372C115.56 13.372 115.069 13.6836 115.069 14.3096V17.7833H117.981M117.981 23.9462V18.3799H115.069V23.9462H113.391V14.7857C113.391 14.2302 113.555 13.8217 113.884 13.5601C114.328 13.2075 115.225 13.0311 116.576 13.0311C117.299 13.0311 117.87 13.0811 118.281 13.184C118.825 13.3191 119.195 13.519 119.392 13.7805C119.556 13.9951 119.639 14.3242 119.639 14.768V23.9462H117.981Z" fill="black"></path><path d="M125.314 23.9462V19.9288L122.352 15.5351V23.9462H120.697V13.084H122.178L125.314 18.2271V13.084H126.942V23.9462" fill="black"></path><path d="M81.6374 41.3034V31.6491L78.9483 39.6341L76.2327 31.6491V41.3034H74.5781V26.8322H76.0593L78.9483 36.5189L81.8607 26.8322H83.2685V41.3034" fill="black"></path><path d="M84.3535 39.446V28.6191H89.2674V29.1804H86.0081V33.2831H88.947V33.8797H86.0081V38.8524H89.3173V39.446" fill="black"></path><path d="M94.9675 29.9592C94.9675 29.7447 94.9351 29.5625 94.8675 29.4155C94.7353 29.1334 94.1357 28.9923 93.0748 28.9923H92.055V33.4007H92.8514C93.6303 33.4007 94.2122 33.2831 94.5942 33.0451C94.844 32.854 94.9675 32.519 94.9675 32.0458M94.9675 39.4636V35.1552C94.9675 34.5998 94.7588 34.2471 94.3444 34.1001C93.8801 33.9297 93.3657 33.8445 92.8015 33.8445H92.055V39.4636H90.4004V28.6014H93.4862C94.4884 28.6014 95.2731 28.7219 95.8315 28.96C96.2106 29.1187 96.4487 29.3185 96.5486 29.5566C96.6132 29.7035 96.6485 29.971 96.6485 30.356V32.3485C96.6485 32.6424 96.5016 32.8776 96.2047 33.048C96.0901 33.1509 95.8462 33.2655 95.4759 33.3977C95.1056 33.527 94.8969 33.5946 94.847 33.5946C94.8646 33.5946 94.9204 33.6064 95.0204 33.6299C95.3319 33.7445 95.5641 33.8298 95.711 33.8856C96.1401 34.0678 96.4105 34.2765 96.5251 34.5145C96.6074 34.6732 96.6485 34.9642 96.6485 35.3815V39.4666H94.9675V39.4636Z" fill="black"></path><path d="M103.265 39.0728C102.739 39.3667 101.93 39.5166 100.846 39.5166C98.724 39.5166 97.6602 39.0464 97.6602 38.103V30.3207C97.6602 29.777 97.8247 29.3744 98.1539 29.1129C98.583 28.7484 99.4793 28.5692 100.846 28.5692C102.113 28.5692 102.994 28.7514 103.488 29.1129C103.8 29.3391 103.958 29.7359 103.958 30.306V31.2259H102.23V29.8652C102.23 29.7623 102.221 29.6565 102.207 29.5419C102.11 29.1334 101.636 28.9277 100.787 28.9277C99.8085 28.9277 99.3177 29.2392 99.3177 29.8652V38.4116C99.3177 38.6378 99.4882 38.8201 99.832 38.9553C100.108 39.0699 100.429 39.1257 100.787 39.1257C101.751 39.114 102.23 38.8818 102.23 38.4262V36.6541H103.958V38.0501C103.955 38.4821 103.726 38.823 103.265 39.0728Z" fill="black"></path><path d="M109.559 29.827C109.559 29.7241 109.551 29.6183 109.536 29.5037C109.439 29.0952 108.966 28.8895 108.116 28.8895C107.138 28.8895 106.647 29.201 106.647 29.827V33.3008H109.559M109.559 39.4637V33.8974H106.647V39.4637H104.969V30.3031C104.969 29.7477 105.133 29.3392 105.462 29.0776C105.906 28.7249 106.803 28.5486 108.155 28.5486C108.877 28.5486 109.448 28.5985 109.859 28.7014C110.403 28.8366 110.773 29.0364 110.97 29.298C111.135 29.5125 111.217 29.8417 111.217 30.2855V39.4637H109.559Z" fill="black"></path><path d="M116.943 39.4636V35.4462L113.981 31.0525V39.4636H112.326V28.6014H113.807L116.943 33.7445V28.6014H118.571V39.4636" fill="black"></path><path d="M123.462 29.1481V39.446H121.781V29.1481H119.412V28.6191H125.931V29.1481" fill="black"></path><path d="M128.668 28.6191H127.014V39.4636H128.668V28.6191Z" fill="black"></path><path d="M129.73 39.446V28.6191H131.385V38.867H134.274V39.446" fill="black"></path><path d="M135.088 39.446V28.6191H139.999V29.1804H136.742V33.2831H139.678V33.8797H136.742V38.8524H140.049V39.446" fill="black"></path><path d="M74.5781 56.8208V42.3497H79.4655V42.911H76.2327V48.8006H79.1217V49.3972H76.2327V56.2242H79.492V56.8208" fill="black"></path><path d="M85.3429 54.9811C85.146 54.2434 84.858 53.4029 84.4789 52.4625C84.232 51.8394 83.9117 51.1811 83.5149 50.4875C83.4003 50.6933 83.2916 50.8784 83.1946 51.0489C82.5686 52.1392 82.0925 53.2383 81.7634 54.3522L81.5664 54.9811H80.3086C80.4232 54.7313 80.5231 54.4991 80.6054 54.2817C80.9169 53.4529 81.3225 52.58 81.8163 51.6601C82.2277 50.8196 82.5392 50.1907 82.7538 49.7704C82.5892 49.406 82.4422 49.071 82.31 48.7653C81.7839 47.6632 81.1168 46.1203 80.3115 44.1336H81.9661C82.0661 44.4628 82.1542 44.742 82.2365 44.9683C82.4334 45.512 82.6391 46.0116 82.8537 46.4671C83.1505 47.1254 83.462 47.7161 83.7912 48.2393L84.0616 47.5574C84.6699 46.038 85.1313 44.8948 85.4429 44.1365H86.7507C86.6037 44.4657 86.4715 44.7449 86.3569 44.9712C85.9954 45.7441 85.7309 46.3231 85.5663 46.7081L84.8992 48.2922C84.7845 48.5655 84.6611 48.8652 84.5289 49.1944C84.6758 49.5001 84.8169 49.7792 84.9491 50.0291C85.5252 51.1194 85.9866 52.1186 86.3304 53.0267C86.6419 53.8555 86.9064 54.5079 87.121 54.9841" fill="black"></path><path d="M93.4131 54.5902C92.887 54.8841 92.0788 55.034 90.9944 55.034C88.8725 55.034 87.8086 54.5637 87.8086 53.6204V45.8381C87.8086 45.2944 87.9732 44.8918 88.3023 44.6302C88.7314 44.2658 89.6278 44.0865 90.9944 44.0865C92.261 44.0865 93.1427 44.2688 93.6364 44.6302C93.948 44.8565 94.1067 45.2533 94.1067 45.8234V46.7433H92.3786V45.3826C92.3786 45.2797 92.3698 45.1739 92.3551 45.0593C92.2581 44.6508 91.7849 44.4451 90.9356 44.4451C89.9569 44.4451 89.4661 44.7566 89.4661 45.3826V53.9289C89.4661 54.1552 89.6366 54.3375 89.9804 54.4726C90.2567 54.5873 90.577 54.6431 90.9356 54.6431C91.8996 54.6313 92.3786 54.3992 92.3786 53.9436V52.1715H94.1067V53.5675C94.1067 53.9995 93.8745 54.3404 93.4131 54.5902Z" fill="black"></path><path d="M99.7096 54.9811V49.3795H96.7972V54.9811H95.1426V44.1189H96.7972V48.8006H99.7096V44.1189H101.438V54.9811" fill="black"></path><path d="M107.067 45.3444C107.067 45.2415 107.058 45.1357 107.044 45.0211C106.947 44.6126 106.473 44.4069 105.624 44.4069C104.645 44.4069 104.155 44.7184 104.155 45.3444V48.8182H107.067M107.067 54.9811V49.4148H104.155V54.9811H102.477V45.8205C102.477 45.2651 102.641 44.8565 102.97 44.595C103.414 44.2423 104.31 44.066 105.662 44.066C106.385 44.066 106.955 44.1159 107.367 44.2188C107.911 44.354 108.281 44.5538 108.478 44.8154C108.642 45.0299 108.725 45.3591 108.725 45.8029V54.9811H107.067Z" fill="black"></path><path d="M114.448 54.9811V50.9636L111.489 46.5699V54.9811H109.834V44.1189H111.315L114.448 49.262V44.1189H116.079V54.9811" fill="black"></path><path d="M122.794 54.5902C122.268 54.8841 121.46 55.034 120.375 55.034C118.253 55.034 117.189 54.5637 117.189 53.6204V45.8381C117.189 45.2944 117.354 44.8918 117.683 44.6302C118.112 44.2658 119.009 44.0865 120.375 44.0865C121.642 44.0865 122.524 44.2688 123.017 44.6302C123.329 44.8565 123.488 45.2533 123.488 45.8234V46.7433H121.759V45.365C121.759 45.0917 121.695 44.8889 121.563 44.7507C121.351 44.545 120.934 44.4451 120.314 44.4451C119.335 44.4451 118.844 44.7566 118.844 45.3826V53.9289C118.844 54.1552 119.015 54.3375 119.358 54.4726C119.635 54.5873 119.955 54.6431 120.314 54.6431C121.277 54.6313 121.757 54.3992 121.757 53.9436V50.2671H120.078V49.7057H123.485V53.5704C123.485 53.9995 123.255 54.3404 122.794 54.5902Z" fill="black"></path><path d="M124.646 54.9635V44.1365H129.56V44.6979H126.301V48.8006H129.237V49.3972H126.301V54.3698H129.607V54.9635" fill="black"></path><path fill-rule="evenodd" clip-rule="evenodd" d="M33.0947 11.4882C33.6972 12.3346 35.0785 14.3272 36.498 16.7547C37.268 18.0743 38.1673 19.9993 38.3289 21.357C38.7756 25.0924 36.1659 27.7932 32.8655 27.7932C29.5769 27.7932 26.8113 24.9308 27.2757 21.3247C27.4344 20.0963 28.2955 17.9332 29.0332 16.6842C30.4086 14.3566 31.8134 12.3728 32.4393 11.5117L20.957 0L20.9658 19.3145L32.7597 31.1083L44.5535 19.3145L44.5594 0.0323282L33.0947 11.4882Z" fill="#C4161C"></path><path fill-rule="evenodd" clip-rule="evenodd" d="M27.0494 56.1949C24.3661 56.1949 22.1914 54.0201 22.1914 51.3368C22.1914 48.6536 24.3661 46.4788 27.0494 46.4788C27.3344 46.4788 27.6136 46.5023 27.887 46.5494C27.4226 45.7353 27.1581 44.7948 27.1581 43.7897C27.1581 40.7098 29.6532 38.2146 32.7332 38.2146C35.8132 38.2146 38.3083 40.7098 38.3083 43.7897C38.3083 44.7948 38.0438 45.7353 37.5795 46.5494C37.8499 46.5023 38.1261 46.4788 38.4112 46.4788C41.0944 46.4788 43.2692 48.6536 43.2692 51.3368C43.2692 54.0201 41.0944 56.1949 38.4112 56.1949C37.5413 56.1949 36.7301 55.9597 36.0248 55.5571L44.5653 64.0888L44.5594 44.8066L32.7655 33.0128L20.9717 44.8066L20.9629 64.1211L29.5798 55.4836C28.8392 55.9304 27.9751 56.1949 27.0494 56.1949Z" fill="#C4161C"></path><path fill-rule="evenodd" clip-rule="evenodd" d="M27.1141 32.9099C25.533 32.9099 24.7042 33.7563 24.0635 34.0678C23.4229 34.3793 21.9828 34.9025 20.5809 34.4293C18.6883 33.7886 17.5774 32.2104 17.4892 32.0811C17.5774 31.943 18.6883 30.3648 20.5809 29.7241C21.9828 29.2509 23.4229 29.777 24.0635 30.0856C24.7042 30.3971 25.533 31.2435 27.1141 31.2435C27.3346 31.2435 29.2919 31.2641 31.0317 31.2847L20.0108 20.2638L0.728625 20.2579L9.69523 29.2333C10.9913 29.1657 12.446 29.7329 12.446 29.7329C12.446 29.7329 11.9317 30.1591 11.5056 30.7351C11.4615 30.7939 11.4204 30.8556 11.3763 30.9173L11.9876 31.5286C12.4696 30.8703 13.41 29.8181 14.7296 29.3714C16.1314 28.8983 18.4855 29.7329 18.4855 29.7329C18.4855 29.7329 17.9447 30.2178 17.5451 30.691C16.9455 31.3993 16.6075 32.0223 16.5752 32.0782C16.6046 32.134 16.9455 32.757 17.5451 33.4653C17.9447 33.9385 18.4855 34.4234 18.4855 34.4234C18.4855 34.4234 16.1314 35.2581 14.7296 34.7849C13.3953 34.3352 12.4519 33.2655 11.9729 32.613L11.3616 33.2214C11.4057 33.289 11.4527 33.3566 11.5027 33.4212C11.9288 33.9973 12.4431 34.4234 12.4431 34.4234C12.4431 34.4234 10.9648 34.9994 9.65997 34.9201L0.693359 43.8632L20.0079 43.8544L30.9935 32.8687C29.2654 32.8893 27.3316 32.9099 27.1141 32.9099ZM23.0173 24.9425C24.8218 26.0416 25.9768 28.5574 25.9768 28.5574L25.0804 29.0011C25.0804 29.0011 24.1076 28.5309 23.0055 28.3516C22.2179 28.2253 21.0835 28.3134 21.0835 28.3134C21.0835 28.3134 20.2871 27.564 19.6493 26.4002C19.0909 25.3804 18.9881 24.3018 18.9881 24.3018C18.9881 24.3018 21.5155 24.0314 23.0173 24.9425ZM13.0456 29.0011C13.0456 29.0011 12.0728 28.5309 10.9707 28.3516C10.1831 28.2253 9.45424 28.2693 9.45424 28.2693C9.45424 28.2693 8.51379 27.3436 7.88487 26.3561C7.26476 25.3804 6.95323 24.3018 6.95323 24.3018C6.95323 24.3018 9.48363 24.0285 10.9854 24.9425C12.7899 26.0416 13.9449 28.5574 13.9449 28.5574L13.0456 29.0011ZM17.0836 28.3516C16.296 28.2253 15.1616 28.3134 15.1616 28.3134C15.1616 28.3134 14.3652 27.564 13.7274 26.4002C13.169 25.3804 13.0662 24.3018 13.0662 24.3018C13.0662 24.3018 15.5966 24.0285 17.0954 24.9425C18.8999 26.0416 20.0549 28.5574 20.0549 28.5574L19.1585 29.0011C19.1614 29.0011 18.1857 28.5309 17.0836 28.3516ZM10.9825 39.2109C9.4807 40.1249 6.9503 39.8516 6.9503 39.8516C6.9503 39.8516 7.26182 38.773 7.88192 37.7973C8.51085 36.8098 9.4513 35.884 9.4513 35.884C9.4513 35.884 10.1802 35.9281 10.9678 35.8018C12.0699 35.6254 13.0426 35.1523 13.0426 35.1523L13.939 35.596C13.942 35.596 12.787 38.1117 10.9825 39.2109ZM17.0983 39.2109C15.5966 40.1249 13.0691 39.8516 13.0691 39.8516C13.0691 39.8516 13.172 38.773 13.7303 37.7532C14.3681 36.5894 15.1645 35.84 15.1645 35.84C15.1645 35.84 16.299 35.9281 17.0866 35.8018C18.1887 35.6254 19.1615 35.1523 19.1615 35.1523L20.0578 35.596C20.0578 35.596 18.9028 38.1117 17.0983 39.2109ZM23.0173 39.2109C21.5155 40.1249 18.9851 39.8516 18.9851 39.8516C18.9851 39.8516 19.088 38.773 19.6464 37.7532C20.2841 36.5894 21.0806 35.84 21.0806 35.84C21.0806 35.84 22.215 35.9281 23.0026 35.8018C24.1047 35.6254 25.0775 35.1523 25.0775 35.1523L25.9738 35.596C25.9768 35.596 24.8218 38.1117 23.0173 39.2109Z" fill="#C4161C"></path><path fill-rule="evenodd" clip-rule="evenodd" d="M44.2979 39.9545L47.4219 36.7805H57.7169L52.9911 32.0665L57.6111 27.4436H47.034L43.9099 24.2695H60.7851L64.7909 20.2609L45.5087 20.2667L33.7148 32.0606L45.5087 43.8544L64.8232 43.8632L60.9056 39.9545H44.2979ZM43.0635 25.5098L46.2375 28.6338V35.9546L43.0635 39.0787V25.5098Z" fill="#C4161C"></path><path d="M0.00294178 66.002C0.540762 65.9873 1.08152 65.9609 1.61934 65.9609C7.75872 65.955 13.901 65.9491 20.0404 65.9491C26.7705 65.9491 33.5006 65.955 40.2307 65.9579C47.0431 65.9609 53.8555 65.9579 60.6649 65.9579C62.0727 65.9579 63.4804 65.9491 64.8881 65.9462C65.0792 65.9462 65.2702 65.9697 65.4465 65.9785C65.5817 66.5575 65.5435 66.6192 65.038 66.6221C64.318 66.6251 63.598 66.6221 62.8779 66.6221C42.476 66.6221 22.0712 66.6221 1.66931 66.6221C1.11385 66.6221 0.555454 66.6015 0 66.5927C0.00293891 66.3929 0.00294178 66.1989 0.00294178 66.002Z" fill="#C4161C"></path><path d="M0.00294178 79.3681C0.493739 79.3593 0.98454 79.3417 1.47534 79.3417C22.224 79.3417 42.9727 79.3417 63.7185 79.3388C64.1593 79.3388 64.6031 79.327 65.0439 79.3299C65.5406 79.3329 65.5817 79.3946 65.4524 79.9765C65.2908 79.9853 65.1174 80 64.941 80C54.6402 80 44.3393 80 34.0414 80C23.2497 80 12.458 80 1.66636 79.9971C1.11091 79.9971 0.555454 79.9677 0 79.953C0.00293891 79.759 0.00294178 79.5651 0.00294178 79.3681Z" fill="#C4161C"></path><path d="M25.098 71.1569C24.4838 72.9496 24.0371 74.7982 23.3964 76.635C23.0202 76.635 22.6646 76.6321 22.309 76.635C22.0357 76.6379 21.9005 76.4998 21.827 76.2441C21.589 75.4095 21.3274 74.5836 21.0864 73.7519C20.8248 72.8585 20.5721 71.9592 20.3135 71.0628C20.2929 70.9952 20.24 70.9365 20.143 70.7748C20.1107 71.0011 20.0872 71.1216 20.0784 71.2421C19.9814 72.8262 19.8844 74.4102 19.7903 75.9943C19.7609 76.4851 19.7551 76.9759 19.7227 77.4667C19.6875 77.9898 19.614 78.0515 19.0968 78.0604C19.0321 78.0604 18.9645 78.0633 18.8998 78.0604C18.2739 78.0515 18.2268 77.9986 18.2797 77.3874C18.4473 75.3654 18.6148 73.3434 18.7823 71.3215C18.8411 70.6191 18.8852 69.9196 18.9469 69.2172C18.9821 68.8293 19.0497 68.7646 19.4318 68.7528C19.7756 68.7411 20.1195 68.7528 20.4633 68.7528C20.7425 68.7528 20.9218 68.8733 21.0041 69.1525C21.489 70.7983 21.9828 72.4441 22.4736 74.0899C22.5294 74.2809 22.5764 74.4749 22.6264 74.6659C22.6617 74.6659 22.6999 74.663 22.7351 74.663C22.8527 74.2633 22.9732 73.8665 23.0937 73.4669C23.5228 72.0415 23.9548 70.6191 24.3838 69.1937C24.4691 68.9086 24.6395 68.747 24.9481 68.7528C25.292 68.7587 25.6358 68.7411 25.9797 68.7646C26.3294 68.7881 26.4058 68.8704 26.4646 69.2025C26.4969 69.3788 26.5116 69.561 26.5234 69.7403C26.7085 72.2208 26.8907 74.7012 27.0759 77.1816C27.0818 77.2463 27.0994 77.3139 27.0906 77.3785C27.0641 77.5901 27.2463 77.8723 26.9613 77.9957C26.591 78.1573 26.1825 78.1691 25.821 77.981C25.7181 77.9281 25.677 77.6989 25.6593 77.5431C25.6123 77.1052 25.5888 76.6614 25.5624 76.2206C25.4683 74.6189 25.3801 73.0172 25.2861 71.4184C25.2802 71.342 25.2567 71.2656 25.242 71.1863C25.1921 71.1745 25.145 71.1657 25.098 71.1569Z" fill="#C4161C"></path><path d="M61.4141 71.9827C61.567 71.7652 61.6786 71.63 61.7697 71.4801C62.19 70.7983 62.6073 70.1106 63.0217 69.4258C63.3861 68.8263 64.0856 68.6999 64.7263 69.1613C64.6205 69.3494 64.5176 69.5492 64.4001 69.7373C63.7623 70.766 63.1393 71.8034 62.4751 72.8173C62.2311 73.1905 62.2576 73.4668 62.4898 73.8312C63.2421 75.0009 63.9563 76.1941 64.6822 77.3785C64.7263 77.449 64.7704 77.5166 64.8086 77.5901C64.9761 77.9016 64.9379 78.0015 64.6058 78.1455C64.0033 78.4042 63.4949 78.266 63.1128 77.6959C62.7572 77.1669 62.4369 76.6144 62.1018 76.0707C61.8961 75.7356 61.6992 75.3977 61.4876 75.0656C61.42 74.9627 61.323 74.8775 61.1908 74.7335C61.0673 74.8951 60.9586 75.0097 60.8793 75.142C60.362 75.9943 59.8477 76.8495 59.3334 77.7047C59.0013 78.2543 58.3988 78.4306 57.814 78.1544C57.6435 78.075 57.6082 77.9486 57.6788 77.7929C57.7258 77.69 57.7963 77.596 57.8581 77.499C58.6339 76.247 59.401 74.9892 60.1915 73.7489C60.3796 73.4551 60.3679 73.2288 60.1915 72.9437C59.5185 71.8592 58.8632 70.7659 58.199 69.6727C58.149 69.5874 58.099 69.5022 58.052 69.417C57.9521 69.2377 58.0021 69.1202 58.1784 69.0173C58.7926 68.6558 59.4274 68.8057 59.8271 69.4405C60.2709 70.1458 60.697 70.8659 61.132 71.5771C61.2025 71.6917 61.2819 71.7946 61.4141 71.9827Z" fill="#C4161C"></path><path d="M41.6034 70.237C41.6034 71.151 41.6034 71.9621 41.6034 72.832C41.7973 72.8467 41.9678 72.8702 42.1412 72.8732C42.8936 72.879 43.6459 72.8732 44.3983 72.8761C44.9126 72.879 44.942 72.9143 44.9479 73.4433C44.9479 73.4756 44.9479 73.508 44.9479 73.5403C44.942 74.1016 44.892 74.1516 44.3248 74.1516C43.4431 74.1516 42.5615 74.1516 41.6269 74.1516C41.5358 75.0627 41.5828 75.9179 41.5946 76.8231C41.7973 76.8407 41.9708 76.8701 42.1441 76.8701C43.1904 76.8701 44.2396 76.8613 45.2858 76.8613C45.4622 76.8613 45.6356 76.8848 45.7972 76.8965C45.9853 77.7135 45.6503 78.1603 44.8773 78.1661C43.6165 78.175 42.3587 78.172 41.0979 78.1661C40.3749 78.1632 40.0869 77.8869 40.084 77.1493C40.0722 75.2684 40.0781 73.3875 40.0781 71.5036C40.0781 70.8336 40.0722 70.1605 40.081 69.4905C40.0898 69.0056 40.1457 68.9497 40.6247 68.9497C42.1294 68.9438 43.6342 68.9438 45.1418 68.9497C45.5974 68.9527 45.6532 69.0144 45.6708 69.4552C45.6738 69.5522 45.6767 69.6521 45.6679 69.7491C45.6297 70.1253 45.5268 70.2281 45.136 70.2311C44.2043 70.237 43.2697 70.234 42.3381 70.234C42.1147 70.237 41.8914 70.237 41.6034 70.237Z" fill="#C4161C"></path><path d="M1.89787 74.8305C1.88611 75.0539 1.86848 75.2302 1.86848 75.4065C1.86554 76.1089 1.87141 76.8143 1.86553 77.5167C1.86259 77.981 1.80676 78.0457 1.3718 78.0515C0.134519 78.0721 0.375512 78.0486 0.372573 77.1052C0.360817 74.6189 0.369631 72.1326 0.369631 69.6463C0.369631 69.514 0.366692 69.3847 0.369631 69.2525C0.384325 68.8057 0.428409 68.7528 0.892756 68.747C1.77737 68.7381 2.65904 68.7117 3.54365 68.744C5.01016 68.794 6.21512 69.7403 6.28565 71.3244C6.30916 71.824 6.2974 72.353 6.16222 72.8262C5.80955 74.0546 4.85734 74.7394 3.58185 74.7805C3.19098 74.7923 2.79717 74.7805 2.40336 74.7864C2.24466 74.7864 2.08596 74.8129 1.89787 74.8305ZM1.86848 71.7446C1.86848 72.2208 1.85672 72.6939 1.87142 73.17C1.88023 73.5021 1.95958 73.5785 2.27992 73.5932C2.62377 73.6079 2.97057 73.6167 3.31148 73.5903C3.93747 73.5403 4.40182 73.2317 4.59872 72.6204C4.78387 72.0473 4.78387 71.4508 4.59284 70.8806C4.40475 70.3222 3.99624 69.9842 3.38789 69.9548C3.02934 69.9372 2.66786 69.9343 2.30637 69.9402C1.93313 69.949 1.88023 69.9989 1.87142 70.3722C1.8626 70.8248 1.86848 71.2862 1.86848 71.7446Z" fill="#C4161C"></path></svg> 